<?xml version="1.0" standalone="no"?>
<!DOCTYPE svg PUBLIC "-//W3C//DTD SVG 20010904//EN"
 "http://www.w3.org/TR/2001/REC-SVG-20010904/DTD/svg10.dtd">
<svg version="1.0" xmlns="http://www.w3.org/2000/svg"
 width="512.000000pt" height="512.000000pt" viewBox="0 0 512.000000 512.000000"
 preserveAspectRatio="xMidYMid meet">

<g transform="translate(0.000000,512.000000) scale(0.100000,-0.100000)"
fill="#000000" stroke="none">
<path d="M867 5110 c-161 -27 -312 -166 -364 -335 -17 -57 -18 -149 -18 -2170
0 -1970 1 -2114 17 -2177 58 -223 213 -372 431 -413 116 -22 3653 -23 3683 -1
19 14 19 52 19 2546 0 2494 0 2532 -19 2546 -17 12 -285 14 -1860 13 -1013 -1
-1863 -5 -1889 -9z m133 -1718 l0 -1627 -95 -95 c-54 -54 -95 -103 -95 -114 0
-10 42 -61 95 -115 l95 -97 0 -81 0 -80 -56 -6 c-59 -6 -175 -55 -211 -89 -38
-36 -25 -88 21 -88 12 0 54 17 95 37 l74 38 1804 3 1803 2 0 -55 0 -55 -1742
0 c-1414 0 -1754 -3 -1799 -14 -110 -25 -197 -98 -248 -205 -22 -47 -26 -70
-26 -146 0 -77 4 -98 27 -147 37 -79 98 -142 177 -181 l66 -32 1676 -3 c1553
-2 1677 -1 1690 14 11 14 15 80 17 316 l3 298 79 0 80 0 0 -385 0 -386 -1782
4 c-1643 2 -1787 4 -1831 19 -132 47 -222 118 -270 215 -55 111 -52 -24 -52
2273 l0 2125 31 65 c65 136 184 209 352 219 l22 1 0 -1628z m3530 -292 l0
-1920 -1710 0 -1710 0 0 35 c0 21 5 35 12 35 17 0 765 749 771 771 3 11 -3 29
-13 42 l-19 23 234 234 233 233 59 -39 c132 -87 299 -152 451 -174 119 -18
336 -8 437 18 216 57 390 158 541 314 417 430 417 1123 0 1551 -384 395 -976
459 -1436 155 -212 -140 -390 -392 -456 -643 -32 -123 -44 -342 -24 -463 24
-152 88 -317 171 -440 l43 -63 -234 -234 -234 -234 -24 20 c-14 10 -29 19 -35
19 -6 0 -116 -104 -244 -232 l-233 -232 0 1572 0 1572 1710 0 1710 0 0 -1920z
m-1325 1344 c512 -96 865 -573 813 -1099 -23 -233 -114 -427 -283 -603 -133
-140 -302 -237 -495 -285 -113 -28 -340 -30 -448 -4 -153 37 -279 96 -400 186
-44 34 -89 61 -100 61 -25 0 -53 -36 -45 -57 4 -10 -70 -90 -223 -244 -126
-126 -233 -229 -238 -229 -14 0 -56 41 -56 54 0 6 113 124 250 261 187 187
250 256 250 274 0 13 -22 56 -49 95 -138 203 -203 427 -188 651 17 263 116
482 299 663 91 90 149 132 260 188 203 103 419 132 653 88z m-1762 -2736
l-328 -328 -87 87 -88 88 255 255 255 255 64 -64 c56 -55 68 -63 91 -57 31 8
47 42 33 71 -6 11 -33 44 -61 72 l-51 53 34 35 34 35 88 -87 88 -88 -327 -327z
m2817 -1103 l0 -265 -1622 2 c-1538 3 -1625 4 -1663 21 -96 43 -158 137 -157
241 0 127 79 226 202 252 41 9 456 13 1648 13 l1592 1 0 -265z"/>
<path d="M2790 4306 c-47 -14 -107 -34 -134 -46 -400 -179 -610 -614 -501
-1040 9 -36 36 -106 60 -157 162 -334 512 -529 884 -492 391 40 698 324 777
719 23 118 15 283 -21 405 -85 292 -306 513 -602 601 -73 22 -112 27 -233 30
-130 3 -154 1 -230 -20z m383 -98 l57 -11 0 -748 c0 -703 -1 -748 -17 -753
-47 -13 -143 -26 -200 -26 l-63 0 0 508 c0 489 -1 510 -19 526 -26 23 -63 17
-78 -14 -10 -19 -13 -141 -13 -512 0 -269 -3 -488 -7 -488 -23 0 -116 35 -180
66 -141 70 -270 201 -342 348 -62 125 -76 190 -75 346 0 140 6 175 51 290 80
204 261 374 473 446 40 13 74 24 76 24 2 0 4 -39 4 -87 0 -101 13 -137 51
-141 49 -6 59 18 59 140 l0 111 83 -7 c45 -3 108 -11 140 -18z m260 -108 c92
-61 192 -166 246 -257 214 -363 94 -842 -267 -1059 -31 -19 -59 -34 -64 -34
-4 0 -8 315 -8 700 0 417 4 700 9 700 5 0 43 -22 84 -50z"/>
<path d="M954 715 c-15 -23 -15 -27 0 -50 l16 -25 1565 0 1565 0 16 25 c15 23
15 27 0 50 l-16 25 -1565 0 -1565 0 -16 -25z"/>
<path d="M954 525 c-15 -23 -15 -27 0 -50 l16 -25 1565 0 1565 0 16 25 c15 23
15 27 0 50 l-16 25 -1565 0 -1565 0 -16 -25z"/>
</g>
</svg>
