<?xml version="1.0" standalone="no"?>
<!DOCTYPE svg PUBLIC "-//W3C//DTD SVG 20010904//EN"
 "http://www.w3.org/TR/2001/REC-SVG-20010904/DTD/svg10.dtd">
<svg version="1.0" xmlns="http://www.w3.org/2000/svg"
 width="1000.000000pt" height="420.000000pt" viewBox="0 0 1000.000000 420.000000"
 preserveAspectRatio="xMidYMid meet">

<g transform="translate(0.000000,420.000000) scale(0.100000,-0.100000)"
fill="#000000" stroke="none">
<path d="M1850 4150 l0 -49 -36 24 c-63 43 -159 37 -208 -12 -43 -42 -56 -86
-56 -182 0 -70 4 -95 23 -131 33 -65 66 -85 141 -85 53 0 68 4 99 28 l37 28
10 -26 c8 -22 15 -26 42 -23 l33 3 3 238 2 237 -45 0 -45 0 0 -50z m-48 -81
c45 -24 65 -165 33 -234 -36 -75 -144 -74 -180 2 -32 68 -16 197 28 228 25 17
89 20 119 4z"/>
<path d="M2415 4150 c-43 -8 -95 -26 -95 -35 0 -3 6 -15 13 -28 6 -12 12 -23
12 -24 1 -1 23 4 50 12 26 8 61 15 77 15 40 0 80 -42 76 -78 -3 -26 -5 -27
-85 -34 -105 -9 -155 -34 -178 -92 -42 -104 38 -190 159 -172 27 4 59 18 77
33 25 22 32 24 40 12 5 -8 9 -20 9 -26 0 -8 14 -13 35 -13 l35 0 0 151 c0 174
-10 220 -54 254 -34 25 -104 36 -171 25z m131 -235 c11 -27 -6 -82 -33 -109
-19 -20 -36 -26 -67 -26 -54 1 -76 18 -76 62 0 45 28 70 88 79 75 10 82 10 88
-6z"/>
<path d="M2937 4150 c-21 -4 -51 -17 -68 -29 l-29 -22 -10 26 c-7 19 -17 25
-40 25 l-30 0 0 -215 0 -215 40 0 40 0 0 123 c0 141 10 188 47 217 35 27 106
27 133 0 18 -18 20 -33 20 -180 l0 -160 45 0 45 0 0 166 c0 183 -10 223 -59
248 -35 18 -88 24 -134 16z"/>
<path d="M3368 4150 c-81 -14 -123 -70 -116 -152 4 -35 13 -57 32 -77 31 -33
32 -42 6 -66 -24 -21 -26 -52 -5 -81 13 -20 12 -23 -25 -53 -35 -28 -40 -37
-40 -72 0 -83 54 -119 179 -119 143 0 220 46 228 137 9 90 -55 133 -200 133
-74 0 -95 14 -72 47 11 16 29 21 80 25 113 10 157 63 142 173 -7 45 1 55 44
55 14 0 19 7 19 25 0 25 -1 25 -97 26 -54 1 -107 2 -118 3 -11 1 -36 -1 -57
-4z m108 -71 c13 -15 19 -36 19 -70 0 -56 -16 -77 -66 -85 -41 -7 -84 22 -92
62 -6 36 10 91 31 103 30 18 87 13 108 -10z m54 -379 c44 -44 11 -92 -76 -110
-99 -21 -180 23 -153 83 16 36 44 46 132 46 64 1 80 -2 97 -19z"/>
<path d="M3850 4150 c-105 -19 -157 -105 -147 -243 8 -123 79 -192 197 -192
123 0 188 61 197 188 9 115 -25 195 -97 232 -33 17 -101 24 -150 15z m111 -80
c45 -25 66 -168 34 -230 -17 -32 -61 -60 -95 -60 -37 0 -81 30 -96 65 -29 71
-11 198 33 224 23 13 99 14 124 1z"/>
<path d="M2070 3892 c0 -291 0 -292 -74 -292 -36 0 -37 -1 -34 -32 3 -32 4
-33 58 -36 73 -3 115 21 130 77 6 24 9 134 8 288 l-3 248 -42 3 -43 3 0 -259z"/>
<path d="M5785 3304 c-167 -25 -301 -89 -405 -194 -90 -89 -131 -166 -154
-289 -21 -107 -20 -156 3 -267 16 -76 29 -113 79 -217 2 -4 -308 -6 -690 -5
l-693 3 0 315 0 315 458 3 457 2 0 155 0 155 -640 0 -640 0 0 -1004 0 -1004
-62 -6 c-35 -4 -150 -6 -257 -5 -228 2 -196 -14 -313 162 -79 118 -228 356
-228 363 0 2 -25 44 -55 93 -30 49 -55 96 -55 104 0 7 19 22 43 33 130 57 267
184 322 299 115 238 75 565 -92 745 -89 97 -157 130 -403 200 -32 9 -171 14
-492 17 l-448 4 0 -1165 0 -1166 181 2 181 3 1 470 2 470 175 3 c130 2 180 -1
193 -10 13 -11 417 -652 417 -664 0 -2 32 -51 71 -109 86 -127 186 -237 256
-282 l53 -33 150 75 150 75 745 0 745 0 0 165 0 165 -457 2 -458 3 0 365 0
365 910 3 910 2 65 -27 c36 -15 119 -54 185 -87 211 -107 284 -205 273 -365
-18 -254 -305 -352 -734 -250 -88 21 -212 60 -282 90 -24 11 -48 19 -53 19 -5
0 -9 -75 -9 -173 l0 -172 28 -12 c79 -34 111 -44 209 -69 104 -27 118 -28 363
-28 236 0 261 1 335 23 267 76 439 235 492 455 18 75 20 254 3 327 -36 157
-152 304 -308 390 -121 66 -182 95 -325 155 -119 50 -252 124 -302 168 -78 68
-100 119 -100 235 0 87 3 101 27 143 33 56 86 98 153 124 41 16 77 19 195 19
163 0 260 -19 424 -81 50 -18 94 -34 97 -34 3 0 12 18 19 40 7 22 19 45 25 50
8 7 184 9 491 8 l479 -3 3 -1007 2 -1008 180 0 180 0 2 1008 3 1007 333 3 332
2 0 155 0 155 -1138 0 c-785 0 -1148 3 -1172 11 -36 11 -380 21 -435 13z m361
-49 c83 -13 271 -15 1186 -15 598 0 1101 -3 1118 -6 l31 -7 -3 -106 -3 -106
-110 -2 c-60 0 -210 -1 -333 -2 l-222 -1 0 -672 c0 -370 0 -823 0 -1006 l0
-333 -132 3 -133 3 -2 999 c-2 549 -4 1000 -5 1001 -7 6 -222 8 -619 7 l-427
-2 -16 -40 c-9 -22 -18 -40 -20 -40 -3 0 -47 14 -98 31 -135 46 -181 56 -298
69 -263 29 -429 -36 -504 -199 -16 -36 -20 -66 -20 -136 0 -78 3 -98 27 -147
51 -104 192 -206 402 -291 89 -36 277 -128 352 -173 112 -68 202 -174 245
-290 28 -79 32 -299 5 -384 -71 -225 -273 -372 -575 -419 -203 -31 -557 7
-717 78 l-45 20 0 120 c0 96 3 121 14 121 7 0 44 -11 81 -25 209 -79 491 -115
665 -86 183 31 295 131 320 288 25 151 -35 282 -170 368 -80 51 -182 104 -295
152 l-80 34 -939 0 c-517 0 -943 -4 -948 -9 -4 -4 -7 -188 -6 -408 l3 -399
455 -5 455 -5 3 -117 3 -118 -721 0 -721 0 -140 -70 c-76 -38 -146 -70 -155
-70 -22 0 -92 51 -136 98 -52 57 -136 173 -197 272 -28 47 -87 141 -130 210
-43 69 -124 201 -181 294 -57 92 -111 176 -119 186 -14 16 -42 19 -233 25
l-218 7 0 -476 0 -476 -135 0 -135 0 2 1117 3 1118 260 3 c268 3 568 -10 639
-29 178 -46 266 -89 347 -169 64 -64 109 -145 133 -241 22 -88 22 -286 0 -360
-52 -174 -165 -296 -359 -389 -85 -40 -82 -37 -69 -58 6 -9 22 -37 36 -62 141
-249 311 -517 432 -682 l20 -28 293 0 c228 0 293 3 293 13 0 6 1 459 0 1004
l0 993 23 4 c12 3 279 4 592 3 l570 -2 0 -110 0 -110 -455 -5 -455 -5 -3 -354
c-2 -261 1 -357 9 -362 11 -7 1499 -3 1506 4 1 2 -17 39 -42 82 -60 107 -76
161 -82 290 -6 123 7 194 53 292 33 69 130 168 206 211 163 91 390 122 624 87z"/>
<path d="M1840 2581 l0 -431 88 0 c176 0 408 19 470 39 190 59 292 200 292
406 0 163 -75 293 -204 353 -96 46 -151 54 -403 59 l-243 5 0 -431z m440 375
c203 -30 298 -92 342 -224 23 -72 24 -210 1 -278 -63 -190 -218 -258 -574
-252 l-164 3 -2 370 c-1 204 0 376 2 383 6 17 271 16 395 -2z"/>
<path d="M4393 645 c-37 -20 -63 -68 -63 -119 0 -32 -5 -38 -35 -53 -42 -20
-48 -53 -10 -53 40 0 46 -27 44 -203 l-1 -162 46 -3 46 -3 2 183 3 183 48 3
c45 3 47 5 47 32 0 27 -2 29 -47 32 -46 3 -48 4 -51 36 -5 51 21 74 77 70 41
-3 46 -1 55 24 5 15 7 30 3 34 -3 3 -34 8 -69 11 -45 3 -72 -1 -95 -12z"/>
<path d="M8135 651 c-3 -2 -5 -139 -5 -303 l0 -299 43 3 42 3 3 70 c3 70 19
105 48 105 8 0 44 -41 80 -90 l67 -90 48 0 c27 0 49 3 49 6 0 3 -38 55 -85
116 -47 60 -85 115 -85 121 0 5 36 50 81 99 l81 88 -50 0 -50 0 -91 -97 c-50
-54 -91 -91 -92 -83 0 8 0 90 1 183 1 92 -2 168 -7 168 -25 5 -74 5 -78 0z"/>
<path d="M4774 476 c-17 -8 -41 -24 -53 -37 -19 -20 -23 -21 -31 -9 -5 8 -10
23 -10 33 0 13 -8 17 -35 17 l-35 0 0 -216 0 -215 43 3 42 3 5 142 c5 140 5
142 34 172 22 23 42 32 77 37 42 6 49 10 54 35 4 16 4 33 0 39 -9 14 -54 12
-91 -4z"/>
<path d="M5085 486 c-5 -3 -26 -7 -45 -10 -52 -9 -62 -19 -54 -50 6 -25 10
-27 38 -21 17 4 54 9 83 12 43 4 55 1 72 -16 12 -12 21 -34 21 -49 0 -29 -1
-29 -87 -41 -103 -14 -146 -33 -169 -77 -25 -47 -15 -118 24 -156 27 -28 36
-30 96 -30 56 0 71 4 100 26 42 32 44 32 56 1 7 -19 17 -25 40 -25 l30 0 0
168 c0 186 -10 225 -63 250 -28 14 -123 25 -142 18z m115 -261 c0 -71 -45
-115 -116 -115 -31 0 -64 33 -64 64 0 53 49 80 153 85 25 1 27 -2 27 -34z"/>
<path d="M5553 471 c-24 -11 -43 -25 -43 -31 0 -20 -18 -9 -24 15 -5 21 -12
25 -41 25 l-35 0 0 -216 0 -215 43 3 42 3 5 150 c6 159 13 184 57 204 38 18
72 13 98 -14 24 -24 25 -28 25 -185 l0 -160 45 0 45 0 0 128 c0 146 10 193 47
222 29 22 79 26 104 7 33 -26 39 -55 39 -207 l0 -151 41 3 41 3 -1 175 c-2
156 -4 177 -22 207 -39 63 -165 72 -226 16 -17 -17 -31 -22 -38 -17 -51 38
-72 48 -113 51 -32 2 -60 -2 -89 -16z"/>
<path d="M6270 475 c-82 -37 -110 -91 -110 -210 0 -91 7 -113 49 -158 43 -47
76 -59 163 -59 105 0 138 14 138 57 l0 32 -52 -14 c-65 -17 -132 -12 -166 14
-26 19 -56 88 -46 104 3 5 68 9 145 9 l139 0 0 52 c0 67 -31 131 -76 159 -46
28 -137 35 -184 14z m145 -80 c16 -15 25 -36 25 -55 l0 -30 -96 0 -96 0 6 33
c14 73 110 104 161 52z"/>
<path d="M7397 475 c-86 -30 -122 -93 -122 -210 0 -68 4 -87 27 -125 36 -63
90 -92 173 -92 74 -1 112 17 158 75 27 33 31 46 35 121 5 100 -7 143 -54 190
-54 54 -137 70 -217 41z m131 -71 c36 -25 52 -68 52 -139 0 -71 -17 -117 -49
-135 -30 -15 -94 -12 -120 6 -70 49 -67 222 3 265 38 23 84 24 114 3z"/>
<path d="M7945 476 c-16 -7 -39 -23 -49 -35 -26 -28 -33 -27 -41 9 -6 26 -11
30 -41 30 l-34 0 0 -216 0 -215 43 3 42 3 5 142 c5 140 5 142 34 172 22 23 42
32 78 37 40 5 49 11 54 30 13 52 -25 69 -91 40z"/>
<path d="M6596 453 c4 -16 31 -111 59 -213 l52 -185 50 -3 50 -3 41 149 c23
82 42 156 42 165 0 9 4 18 9 21 5 3 21 -40 36 -97 15 -56 30 -113 35 -127 4
-14 13 -44 19 -68 l12 -43 52 3 c48 3 52 5 58 33 7 28 27 100 79 285 11 41 23
83 26 93 5 14 -1 17 -40 17 -25 0 -46 -2 -46 -5 0 -2 -15 -64 -34 -137 -19
-73 -36 -144 -38 -158 l-4 -25 -11 25 c-6 14 -16 45 -23 70 -7 25 -18 65 -25
90 -7 25 -19 67 -26 93 l-14 48 -50 -3 -50 -3 -37 -130 c-20 -71 -40 -143 -43
-160 -5 -22 -9 -26 -15 -15 -6 13 -80 293 -80 306 0 2 -20 4 -45 4 -44 0 -45
-1 -39 -27z"/>
</g>
</svg>
